<svg xmlns="http://www.w3.org/2000/svg" xmlns:xlink="http://www.w3.org/1999/xlink" width="500" zoomAndPan="magnify" viewBox="0 0 375 374.999991" height="500" preserveAspectRatio="xMidYMid meet" version="1.0"><defs><g/><clipPath id="ebdb8bb7a0"><path d="M 109.324219 108.910156 L 274.324219 108.910156 L 274.324219 252.910156 L 109.324219 252.910156 Z M 109.324219 108.910156 " clip-rule="nonzero"/></clipPath><clipPath id="56f726741e"><path d="M 109.324219 60.894531 L 274.324219 60.894531 L 274.324219 204.894531 L 109.324219 204.894531 Z M 109.324219 60.894531 " clip-rule="nonzero"/></clipPath><clipPath id="959c951cf5"><path d="M 150 108 L 317 108 L 317 253 L 150 253 Z M 150 108 " clip-rule="nonzero"/></clipPath><clipPath id="fd56842d0e"><path d="M 109.351562 180.957031 L 190.828125 37.480469 L 316.046875 108.589844 L 234.566406 252.066406 Z M 109.351562 180.957031 " clip-rule="nonzero"/></clipPath><clipPath id="13f14199bb"><path d="M 191 132 L 358 132 L 358 276 L 191 276 Z M 191 132 " clip-rule="nonzero"/></clipPath><clipPath id="7bd3aaab67"><path d="M 151.101562 204.667969 L 232.582031 61.191406 L 357.800781 132.300781 L 276.320312 275.777344 Z M 151.101562 204.667969 " clip-rule="nonzero"/></clipPath><clipPath id="0d559ef82b"><path d="M 182 91 L 279 91 L 279 233 L 182 233 Z M 182 91 " clip-rule="nonzero"/></clipPath><clipPath id="1b557d63cd"><path d="M 258.054688 91.808594 L 278.75 103.957031 L 203.566406 232.019531 L 182.871094 219.867188 Z M 258.054688 91.808594 " clip-rule="nonzero"/></clipPath><clipPath id="0022cdb21c"><path d="M 247.773438 90.160156 L 278.523438 90.160156 L 278.523438 106.660156 L 247.773438 106.660156 Z M 247.773438 90.160156 " clip-rule="nonzero"/></clipPath><clipPath id="6af05324fb"><path d="M 260 91 L 323 91 L 323 157 L 260 157 Z M 260 91 " clip-rule="nonzero"/></clipPath><clipPath id="0943a31a79"><path d="M 284.519531 91.058594 L 322.664062 111.96875 L 298.511719 156.03125 L 260.367188 135.121094 Z M 284.519531 91.058594 " clip-rule="nonzero"/></clipPath></defs><g clip-path="url(#ebdb8bb7a0)"><path fill="#000000" d="M 191.824219 252.910156 L 109.328125 108.910156 L 274.324219 108.910156 L 191.824219 252.910156 " fill-opacity="1" fill-rule="nonzero"/></g><g clip-path="url(#56f726741e)"><path fill="#ffffff" d="M 191.824219 204.894531 L 109.328125 60.894531 L 274.324219 60.894531 L 191.824219 204.894531 " fill-opacity="1" fill-rule="nonzero"/></g><g clip-path="url(#959c951cf5)"><g clip-path="url(#fd56842d0e)"><path fill="#000000" d="M 150.089844 109.21875 L 316.046875 108.589844 L 234.570312 252.066406 L 150.089844 109.21875 " fill-opacity="1" fill-rule="nonzero"/></g></g><g clip-path="url(#13f14199bb)"><g clip-path="url(#7bd3aaab67)"><path fill="#ffffff" d="M 191.84375 132.929688 L 357.800781 132.300781 L 276.320312 275.777344 L 191.84375 132.929688 " fill-opacity="1" fill-rule="nonzero"/></g></g><g clip-path="url(#0d559ef82b)"><g clip-path="url(#1b557d63cd)"><path fill="#000000" d="M 258.046875 91.820312 L 278.742188 103.972656 L 203.574219 232.007812 L 182.878906 219.855469 L 258.046875 91.820312 " fill-opacity="1" fill-rule="nonzero"/></g></g><g clip-path="url(#0022cdb21c)"><path fill="#ffffff" d="M 278.519531 90.160156 L 278.519531 106.660156 L 247.777344 106.660156 L 247.777344 90.160156 L 278.519531 90.160156 " fill-opacity="1" fill-rule="nonzero"/></g><g clip-path="url(#6af05324fb)"><g clip-path="url(#0943a31a79)"><path fill="#ffffff" d="M 284.523438 91.058594 L 322.664062 111.964844 L 298.507812 156.03125 L 260.367188 135.121094 L 284.523438 91.058594 " fill-opacity="1" fill-rule="nonzero"/></g></g><path stroke-linecap="butt" transform="matrix(5.258041, 0, 0, 5.014925, 102.544714, 106.666539)" fill="none" stroke-linejoin="miter" d="M -0.000331876 0.00028518 L 33.520502 0.00028518 " stroke="#ffffff" stroke-width="1" stroke-opacity="1" stroke-miterlimit="4"/><g fill="#000000" fill-opacity="1"><g transform="translate(142.78277, 291.887119)"><g><path d="M 3.9375 -1.4375 C 4.289062 -3.019531 4.601562 -5.050781 4.875 -7.53125 C 5.15625 -10.007812 5.296875 -11.84375 5.296875 -13.03125 C 5.296875 -14.21875 5.242188 -15.070312 5.140625 -15.59375 C 5.734375 -15.664062 6.289062 -15.703125 6.8125 -15.703125 C 7.113281 -15.703125 7.265625 -15.539062 7.265625 -15.21875 C 7.265625 -13.1875 7.097656 -10.734375 6.765625 -7.859375 C 6.429688 -4.984375 6.039062 -2.75 5.59375 -1.15625 C 5.363281 -0.382812 5.023438 0 4.578125 0 L 3.171875 0 C 2.671875 0 2.332031 -0.382812 2.15625 -1.15625 C 1.289062 -4.863281 0.859375 -9 0.859375 -13.5625 C 0.859375 -13.894531 0.789062 -14.128906 0.65625 -14.265625 C 0.519531 -14.398438 0.285156 -14.46875 -0.046875 -14.46875 C -0.046875 -15.382812 0.476562 -15.84375 1.53125 -15.84375 C 2.382812 -15.84375 2.8125 -15.289062 2.8125 -14.1875 C 2.8125 -12.050781 2.910156 -9.75 3.109375 -7.28125 C 3.304688 -4.820312 3.582031 -2.875 3.9375 -1.4375 Z M 3.9375 -1.4375 "/></g></g></g><g fill="#000000" fill-opacity="1"><g transform="translate(154.898926, 291.887119)"><g><path d="M 0.890625 -0.28125 L 0.890625 -13.34375 L 0.796875 -15.59375 C 1.335938 -15.675781 1.875 -15.71875 2.40625 -15.71875 C 2.65625 -15.71875 2.78125 -15.582031 2.78125 -15.3125 L 2.78125 -2.25 L 2.875 0 C 2.332031 0.0820312 1.796875 0.125 1.265625 0.125 C 1.015625 0.125 0.890625 -0.0078125 0.890625 -0.28125 Z M 0.890625 -0.28125 "/></g></g></g><g fill="#000000" fill-opacity="1"><g transform="translate(162.865112, 291.887119)"><g><path d="M 2.453125 -14.015625 C 1.867188 -14.015625 1.4375 -13.972656 1.15625 -13.890625 C 1.019531 -14.335938 0.953125 -14.78125 0.953125 -15.21875 C 0.953125 -15.46875 1.066406 -15.59375 1.296875 -15.59375 L 6.75 -15.59375 L 6.75 -2.296875 C 6.75 -1.503906 6.472656 -0.882812 5.921875 -0.4375 C 5.378906 0.0078125 4.648438 0.234375 3.734375 0.234375 C 2.816406 0.234375 2.082031 0.03125 1.53125 -0.375 C 0.988281 -0.78125 0.71875 -1.3125 0.71875 -1.96875 L 0.71875 -4.9375 C 0.71875 -5.226562 0.925781 -5.429688 1.34375 -5.546875 C 1.570312 -5.609375 1.796875 -5.640625 2.015625 -5.640625 C 2.242188 -5.640625 2.46875 -5.613281 2.6875 -5.5625 C 2.632812 -5.175781 2.609375 -4.769531 2.609375 -4.34375 L 2.609375 -2.296875 C 2.609375 -1.992188 2.710938 -1.757812 2.921875 -1.59375 C 3.128906 -1.425781 3.398438 -1.34375 3.734375 -1.34375 C 4.078125 -1.34375 4.347656 -1.425781 4.546875 -1.59375 C 4.742188 -1.757812 4.84375 -1.992188 4.84375 -2.296875 L 4.84375 -14.015625 Z M 2.453125 -14.015625 "/></g></g></g><g fill="#000000" fill-opacity="1"><g transform="translate(174.765376, 291.887119)"><g><path d="M 0.859375 -0.28125 L 0.859375 -13.296875 C 0.859375 -14.097656 1.128906 -14.722656 1.671875 -15.171875 C 2.222656 -15.617188 2.96875 -15.84375 3.90625 -15.84375 C 4.851562 -15.84375 5.585938 -15.632812 6.109375 -15.21875 C 6.628906 -14.800781 6.890625 -14.191406 6.890625 -13.390625 L 6.890625 -2.046875 C 6.890625 -1.703125 6.957031 -1.460938 7.09375 -1.328125 C 7.226562 -1.191406 7.460938 -1.125 7.796875 -1.125 C 7.796875 -0.21875 7.285156 0.234375 6.265625 0.234375 C 5.410156 0.234375 4.984375 -0.316406 4.984375 -1.421875 L 4.984375 -6 L 2.765625 -6 L 2.765625 -2.25 L 2.859375 0 C 2.316406 0.0820312 1.78125 0.125 1.25 0.125 C 0.988281 0.125 0.859375 -0.0078125 0.859375 -0.28125 Z M 2.765625 -13.296875 L 2.765625 -7.578125 L 4.984375 -7.578125 L 4.984375 -13.296875 C 4.984375 -13.597656 4.878906 -13.832031 4.671875 -14 C 4.472656 -14.164062 4.203125 -14.25 3.859375 -14.25 C 3.523438 -14.25 3.257812 -14.164062 3.0625 -14 C 2.863281 -13.832031 2.765625 -13.597656 2.765625 -13.296875 Z M 2.765625 -13.296875 "/></g></g></g><g fill="#000000" fill-opacity="1"><g transform="translate(186.90552, 291.887119)"><g><path d="M 5.15625 -13.625 C 5.15625 -14.414062 5.097656 -15.070312 4.984375 -15.59375 C 5.535156 -15.664062 6.085938 -15.703125 6.640625 -15.703125 C 6.921875 -15.703125 7.0625 -15.582031 7.0625 -15.34375 L 7.0625 -2.296875 C 7.0625 -1.503906 6.785156 -0.882812 6.234375 -0.4375 C 5.691406 0.0078125 4.957031 0.234375 4.03125 0.234375 C 3.113281 0.234375 2.382812 0.03125 1.84375 -0.375 C 1.300781 -0.78125 1.03125 -1.3125 1.03125 -1.96875 L 1.03125 -3.59375 C 1.03125 -3.882812 1.238281 -4.085938 1.65625 -4.203125 C 1.875 -4.265625 2.09375 -4.296875 2.3125 -4.296875 C 2.539062 -4.296875 2.769531 -4.269531 3 -4.21875 C 2.945312 -3.832031 2.921875 -3.425781 2.921875 -3 L 2.921875 -2.296875 C 2.921875 -1.992188 3.023438 -1.757812 3.234375 -1.59375 C 3.441406 -1.425781 3.710938 -1.34375 4.046875 -1.34375 C 4.390625 -1.34375 4.660156 -1.425781 4.859375 -1.59375 C 5.054688 -1.757812 5.15625 -1.992188 5.15625 -2.296875 L 5.15625 -6.046875 C 4.738281 -5.628906 4.179688 -5.421875 3.484375 -5.421875 C 1.847656 -5.421875 1.03125 -6.191406 1.03125 -7.734375 L 1.03125 -13.5625 C 1.03125 -13.894531 0.960938 -14.128906 0.828125 -14.265625 C 0.691406 -14.398438 0.457031 -14.46875 0.125 -14.46875 C 0.125 -15.382812 0.632812 -15.84375 1.65625 -15.84375 C 2.5 -15.84375 2.921875 -15.289062 2.921875 -14.1875 L 2.921875 -7.875 C 2.921875 -7.300781 3.210938 -7.015625 3.796875 -7.015625 C 4.390625 -7.015625 4.84375 -7.289062 5.15625 -7.84375 Z M 5.15625 -13.625 "/></g></g></g><g fill="#000000" fill-opacity="1"><g transform="translate(199.117624, 291.887119)"><g/></g></g><g fill="#000000" fill-opacity="1"><g transform="translate(206.292199, 291.887119)"><g><path d="M 1.015625 -0.28125 L 1.015625 -13.265625 C 1.015625 -13.617188 0.945312 -13.867188 0.8125 -14.015625 C 0.6875 -14.171875 0.457031 -14.25 0.125 -14.25 C 0.101562 -14.664062 0.210938 -14.992188 0.453125 -15.234375 C 0.691406 -15.472656 1.078125 -15.59375 1.609375 -15.59375 C 2.140625 -15.59375 2.515625 -15.332031 2.734375 -14.8125 C 3.359375 -15.332031 4 -15.59375 4.65625 -15.59375 C 6.238281 -15.59375 7.03125 -14.8125 7.03125 -13.25 L 7.03125 -7.6875 C 7.03125 -6.675781 6.609375 -5.953125 5.765625 -5.515625 L 6.265625 -2.296875 C 6.347656 -1.785156 6.597656 -1.53125 7.015625 -1.53125 C 7.140625 -1.53125 7.289062 -1.5625 7.46875 -1.625 C 7.53125 -1.4375 7.5625 -1.207031 7.5625 -0.9375 C 7.5625 -0.675781 7.425781 -0.414062 7.15625 -0.15625 C 6.894531 0.101562 6.554688 0.234375 6.140625 0.234375 C 5.203125 0.234375 4.664062 -0.171875 4.53125 -0.984375 L 3.84375 -5.140625 L 2.90625 -5.140625 L 2.90625 -2.25 L 3 0 C 2.457031 0.0820312 1.921875 0.125 1.390625 0.125 C 1.140625 0.125 1.015625 -0.0078125 1.015625 -0.28125 Z M 4.203125 -14.015625 C 3.765625 -14.015625 3.332031 -13.800781 2.90625 -13.375 L 2.90625 -6.71875 L 4.015625 -6.71875 C 4.347656 -6.71875 4.617188 -6.800781 4.828125 -6.96875 C 5.035156 -7.132812 5.140625 -7.375 5.140625 -7.6875 L 5.140625 -13.109375 C 5.140625 -13.710938 4.828125 -14.015625 4.203125 -14.015625 Z M 4.203125 -14.015625 "/></g></g></g><g fill="#000000" fill-opacity="1"><g transform="translate(218.52829, 291.887119)"><g><path d="M 0.859375 -0.28125 L 0.859375 -13.296875 C 0.859375 -14.097656 1.128906 -14.722656 1.671875 -15.171875 C 2.222656 -15.617188 2.96875 -15.84375 3.90625 -15.84375 C 4.851562 -15.84375 5.585938 -15.632812 6.109375 -15.21875 C 6.628906 -14.800781 6.890625 -14.191406 6.890625 -13.390625 L 6.890625 -2.046875 C 6.890625 -1.703125 6.957031 -1.460938 7.09375 -1.328125 C 7.226562 -1.191406 7.460938 -1.125 7.796875 -1.125 C 7.796875 -0.21875 7.285156 0.234375 6.265625 0.234375 C 5.410156 0.234375 4.984375 -0.316406 4.984375 -1.421875 L 4.984375 -6 L 2.765625 -6 L 2.765625 -2.25 L 2.859375 0 C 2.316406 0.0820312 1.78125 0.125 1.25 0.125 C 0.988281 0.125 0.859375 -0.0078125 0.859375 -0.28125 Z M 2.765625 -13.296875 L 2.765625 -7.578125 L 4.984375 -7.578125 L 4.984375 -13.296875 C 4.984375 -13.597656 4.878906 -13.832031 4.671875 -14 C 4.472656 -14.164062 4.203125 -14.25 3.859375 -14.25 C 3.523438 -14.25 3.257812 -14.164062 3.0625 -14 C 2.863281 -13.832031 2.765625 -13.597656 2.765625 -13.296875 Z M 2.765625 -13.296875 "/></g></g></g><g fill="#000000" fill-opacity="1"><g transform="translate(230.668433, 291.887119)"><g><path d="M 2.453125 -14.015625 C 1.867188 -14.015625 1.4375 -13.972656 1.15625 -13.890625 C 1.019531 -14.335938 0.953125 -14.78125 0.953125 -15.21875 C 0.953125 -15.46875 1.066406 -15.59375 1.296875 -15.59375 L 6.75 -15.59375 L 6.75 -2.296875 C 6.75 -1.503906 6.472656 -0.882812 5.921875 -0.4375 C 5.378906 0.0078125 4.648438 0.234375 3.734375 0.234375 C 2.816406 0.234375 2.082031 0.03125 1.53125 -0.375 C 0.988281 -0.78125 0.71875 -1.3125 0.71875 -1.96875 L 0.71875 -4.9375 C 0.71875 -5.226562 0.925781 -5.429688 1.34375 -5.546875 C 1.570312 -5.609375 1.796875 -5.640625 2.015625 -5.640625 C 2.242188 -5.640625 2.46875 -5.613281 2.6875 -5.5625 C 2.632812 -5.175781 2.609375 -4.769531 2.609375 -4.34375 L 2.609375 -2.296875 C 2.609375 -1.992188 2.710938 -1.757812 2.921875 -1.59375 C 3.128906 -1.425781 3.398438 -1.34375 3.734375 -1.34375 C 4.078125 -1.34375 4.347656 -1.425781 4.546875 -1.59375 C 4.742188 -1.757812 4.84375 -1.992188 4.84375 -2.296875 L 4.84375 -14.015625 Z M 2.453125 -14.015625 "/></g></g></g></svg>